<?xml version="1.0" standalone="no"?>
<!DOCTYPE svg PUBLIC "-//W3C//DTD SVG 20010904//EN"
 "http://www.w3.org/TR/2001/REC-SVG-20010904/DTD/svg10.dtd">
<svg version="1.0" xmlns="http://www.w3.org/2000/svg"
 width="260.000000pt" height="260.000000pt" viewBox="0 0 260.000000 260.000000"
 preserveAspectRatio="xMidYMid meet">
<metadata>
Created by potrace 1.14, written by Peter Selinger 2001-2017
</metadata>
<g transform="translate(0.000000,260.000000) scale(0.100000,-0.100000)"
fill="#000000" stroke="none">
<path d="M1221 2579 c-44 -20 -79 -64 -87 -111 -13 -82 -5 -75 -101 -76 -87
-1 -88 -1 -115 32 -48 58 -82 68 -236 67 -180 -2 -194 -5 -246 -57 l-43 -43
-115 -2 c-88 -1 -123 -5 -153 -20 -51 -24 -98 -78 -113 -127 -9 -29 -12 -308
-12 -1044 0 -1121 -3 -1065 69 -1137 20 -20 55 -42 77 -49 49 -14 2234 -17
2297 -3 58 14 105 51 132 105 l25 50 0 1020 c0 689 -4 1033 -11 1059 -13 48
-71 113 -118 133 -23 10 -73 16 -141 17 l-105 2 -6 47 c-9 60 -31 97 -77 128
l-36 25 -423 1 c-380 1 -427 -1 -462 -17z m-843 -508 c31 -2 62 -35 55 -61 -9
-35 -49 -46 -170 -44 -94 0 -116 3 -133 19 -11 10 -20 26 -20 35 0 21 28 47
55 52 18 3 150 3 213 -1z m1003 -175 c348 -30 636 -361 624 -720 -12 -382
-317 -686 -690 -689 -109 -1 -153 6 -237 33 -282 95 -477 361 -483 660 -6 363
273 681 630 717 33 3 62 7 63 9 2 1 9 1 15 -1 7 -2 41 -6 78 -9z m-969 -28
c23 -23 23 -43 -1 -67 -17 -17 -34 -19 -128 -19 -129 0 -150 4 -164 30 -14 26
5 65 35 71 12 2 70 3 130 3 93 0 112 -2 128 -18z"/>
<path d="M1240 1722 c-116 -13 -244 -78 -327 -165 -261 -273 -152 -735 203
-864 194 -70 412 -23 556 120 73 73 109 133 137 237 94 336 -149 663 -499 674
-25 1 -56 0 -70 -2z m91 -152 c5 0 9 -11 9 -24 0 -21 -6 -24 -53 -29 -140 -14
-264 -136 -279 -273 -6 -48 -14 -64 -33 -64 -39 0 -25 119 24 205 40 69 96
123 158 152 54 25 129 43 151 37 8 -2 18 -4 23 -4z m42 -268 c32 -19 57 -69
57 -114 0 -62 -55 -118 -118 -121 -82 -3 -135 45 -135 122 -1 59 25 98 77 121
43 20 75 18 119 -8z"/>
</g>
</svg>
