<?xml version="1.0" encoding="utf-8"?>
<!-- Generator: Adobe Illustrator 26.1.0, SVG Export Plug-In . SVG Version: 6.00 Build 0)  -->
<svg version="1.1" id="a" xmlns="http://www.w3.org/2000/svg" xmlns:xlink="http://www.w3.org/1999/xlink" x="0px" y="0px"
	 viewBox="0 0 100 100" style="enable-background:new 0 0 100 100;" xml:space="preserve">
<style type="text/css">
	.st0{display:none;fill:#FFFFFF;}
	.st1{fill:#FFFFFF;}
	.st2{fill:#EF4442;}
</style>
<rect class="st0" width="100" height="100"/>
<path class="st1" d="M48.2,41.9c-5,1-8.9,5.3-9.4,10.4c0,0.6-0.1,1-0.2,1.6c-0.1,0.6-0.6,1-1.1,0.9c-0.4-0.1-0.8-0.7-1-1.1
	c-0.1-0.2,0-0.6,0-0.9c0.2-5,4-10.4,8.7-12.3c1.6-0.6,3.2-0.8,4.8-1.1c0.2,0,0.4,0,0.7,0c0.6,0.1,1.1,0.2,1.2,1
	c0.1,0.7-0.3,1.1-1.1,1.2C49.9,41.7,49,41.7,48.2,41.9z M50.2,49c-2.9,0-5.1,2.2-5.1,5.1c-0.1,2.9,2,5,5,5c2.8,0,5-2.2,5-5
	C55.1,51.2,52.9,49,50.2,49z M50,81.4c-15.6,0-27.2-12.8-27.2-27.3c0-14.9,12.2-27.3,27.3-27.3c15,0,27.2,12.6,27.1,27.4
	C77.1,68.7,65.6,81.4,50,81.4z M49.9,74.6c11.6,0.1,20.4-9,20.4-20.4c0-11.6-9.2-20.3-20.3-20.4C38.8,33.8,29.7,42.6,29.6,54
	C29.6,65.2,38.3,74.4,49.9,74.6z M14.6,20.2c-2.7-0.1-5.4-0.1-8.1,0c-1.3,0-2.3,1.1-2.2,2.2c0.1,1.1,1.1,2,2.4,2
	c1.2,0,2.6-0.1,3.9,0c1.2,0,2.6-0.1,3.8,0c1.3,0.1,2.3-1.2,2.4-2C16.9,21.3,15.9,20.3,14.6,20.2z M16.6,29.6c0-1.1-0.6-2-1.9-2.1
	c-2.8-0.1-5.6-0.1-8.3,0c-1.3,0.1-2.1,1-2,2.2c0.1,1.1,0.9,1.8,2.2,1.8c1.3,0,2.6,0,3.8,0c1.3,0,2.8,0,4.1,0
	C15.7,31.4,16.4,30.7,16.6,29.6z"/>
<path class="st2" d="M0,92.9V15.4c0.1-0.3,0.2-0.6,0.3-0.9c0.6-2.6,2-4.4,4.3-5.6c1.2-0.6,2.4-0.9,3.8-0.9c2.3,0,4.7,0,6.9,0
	c0.2-0.3,0.4-0.6,0.6-0.8c1.4-2,3.3-3.1,5.9-3.1c2.9,0.1,5.7,0,8.6,0c2,0,3.7,1,4.9,2.6c0.3,0.4,0.7,0.8,0.9,1.2h7.2
	c0-0.7,0.1-1.2,0.1-1.9c0.2-3.4,3-6,6.4-6c9.7,0,19.2,0.1,28.9-0.1c3.1,0,6.4,2.7,6.6,6.2c0,0.6,0.1,1.1,0.1,1.8c2.3,0,4.4,0,6.6,0
	c2.4,0.1,4.4,1,6,2.9c1.6,1.8,2,3.9,2,6.2v73.8c0,0.3,0,0.7,0,1c-0.2,3.9-2.3,6.8-5.8,7.7c-1.1,0.3-2.4,0.4-3.6,0.4
	c-27,0-54.1,0-81.1,0c-0.4,0-0.9,0-1.2,0c-4.1-0.2-7.1-2.6-7.9-6.6C0.2,93.3,0.1,93.1,0,92.9z M22.8,54.1
	c0,14.6,11.7,27.3,27.2,27.3s27.1-12.8,27.2-27.2c0.1-14.9-12.1-27.4-27.1-27.4C35,26.8,22.8,39.2,22.8,54.1z M10.6,24.4
	c1.2,0,2.6-0.1,3.8,0c1.3,0.1,2.3-1.2,2.4-2c0.1-1.1-0.9-2.1-2.2-2.2c-2.7-0.1-5.4-0.1-8.1,0c-1.3,0-2.3,1.1-2.2,2.2
	c0.1,1.1,1.1,2,2.4,2C7.9,24.4,9.2,24.3,10.6,24.4L10.6,24.4z M10.3,31.4L10.3,31.4c1.3,0,2.8,0,4.1,0c1.2,0,2-0.8,2.1-1.9
	c0-1.1-0.6-2-1.9-2.1c-2.8-0.1-5.6-0.1-8.3,0c-1.3,0.1-2.1,1-2,2.2c0.1,1.1,0.9,1.8,2.2,1.8C7.9,31.4,9.1,31.4,10.3,31.4L10.3,31.4z
	 M50,33.7c11.1,0.1,20.3,8.9,20.3,20.4c0,11.4-8.9,20.6-20.4,20.4S29.6,65.2,29.6,54C29.7,42.6,38.8,33.8,50,33.7L50,33.7z
	 M50.1,59.1c2.8,0,5-2.2,5-5c0-2.9-2.2-5.1-4.9-5.1c-2.9,0-5.1,2.2-5.1,5.1C45,57,47.1,59.1,50.1,59.1L50.1,59.1z M36.4,52.8
	c0,0.3-0.1,0.7,0,0.9c0.2,0.4,0.6,1,1,1.1c0.6,0.1,1-0.3,1.1-0.9c0.1-0.6,0.2-1,0.2-1.6c0.6-5.1,4.4-9.4,9.4-10.4
	c0.8-0.2,1.7-0.2,2.4-0.3s1.2-0.6,1.1-1.2c-0.1-0.8-0.7-0.9-1.2-1c-0.2,0-0.4,0-0.7,0c-1.6,0.3-3.2,0.6-4.8,1.1
	C40.4,42.3,36.7,47.8,36.4,52.8L36.4,52.8z"/>
</svg>
